<svg width="40" height="40" viewBox="0 0 40 40" fill="none" xmlns="http://www.w3.org/2000/svg">
  <path d="M31.6667 15H28.3333V8.33333C28.3333 7.89131 28.1577 7.46738 27.8452 7.15482C27.5326 6.84226 27.1087 6.66667 26.6667 6.66667H5C4.55797 6.66667 4.13405 6.84226 3.82149 7.15482C3.50893 7.46738 3.33333 7.89131 3.33333 8.33333V25C3.33333 25.442 3.50893 25.8659 3.82149 26.1785C4.13405 26.4911 4.55797 26.6667 5 26.6667H6.66667C6.66667 28.4348 7.36905 30.1305 8.61929 31.3807C9.86953 32.631 11.5652 33.3333 13.3333 33.3333C15.1014 33.3333 16.7971 32.631 18.0474 31.3807C19.2976 30.1305 20 28.4348 20 26.6667H26.6667C26.6667 28.4348 27.369 30.1305 28.6193 31.3807C29.8695 32.631 31.5652 33.3333 33.3333 33.3333C35.1014 33.3333 36.7971 32.631 38.0474 31.3807C39.2976 30.1305 40 28.4348 40 26.6667H41.6667C42.1087 26.6667 42.5326 26.4911 42.8452 26.1785C43.1577 25.8659 43.3333 25.442 43.3333 25V21.6667C43.3334 21.2247 43.1578 20.8007 42.8452 20.4882L38.5118 16.1548C38.1993 15.8422 37.7753 15.6666 37.3333 15.6667H35V11.6667C35 11.2247 34.8244 10.8007 34.5118 10.4882C34.1993 10.1756 33.7754 10 33.3333 10H31.6667V15Z" fill="#00B207"/>
</svg>
