<svg width="18" height="18" viewBox="0 0 18 18" fill="none" xmlns="http://www.w3.org/2000/svg">
  <path d="M9 4.38462C6.44711 4.38462 4.38462 6.44711 4.38462 9C4.38462 11.5529 6.44711 13.6154 9 13.6154C11.5529 13.6154 13.6154 11.5529 13.6154 9C13.6154 6.44711 11.5529 4.38462 9 4.38462ZM9 12.0192C7.33173 12.0192 5.98077 10.6731 5.98077 9C5.98077 7.32692 7.32692 5.98077 9 5.98077C10.6731 5.98077 12.0192 7.32692 12.0192 9C12.0192 10.6731 10.6683 12.0192 9 12.0192ZM14.8846 4.19712C14.8846 4.79808 14.3942 5.28365 13.7981 5.28365C13.1971 5.28365 12.7115 4.79327 12.7115 4.19712C12.7115 3.60096 13.2019 3.11058 13.7981 3.11058C14.3942 3.11058 14.8846 3.60096 14.8846 4.19712ZM17.9183 5.29808C17.8462 3.84135 17.5048 2.55288 16.4423 1.49519C15.3846 0.4375 14.0962 0.0961538 12.6394 0.0192308C11.1346 -0.0673077 6.86058 -0.0673077 5.35577 0.0192308C3.90385 0.0913462 2.61538 0.432692 1.55288 1.49038C0.490385 2.54808 0.153846 3.83654 0.0769231 5.29327C-0.00961538 6.79808 -0.00961538 11.0721 0.0769231 12.5769C0.149038 14.0337 0.490385 15.3221 1.55288 16.3798C2.61538 17.4375 3.89904 17.7788 5.35577 17.8558C6.86058 17.9423 11.1346 17.9423 12.6394 17.8558C14.0962 17.7837 15.3846 17.4423 16.4423 16.3798C17.5 15.3221 17.8413 14.0337 17.9183 12.5769C18.0048 11.0721 18.0048 6.80288 17.9183 5.29808ZM16.0048 14.1875C15.6779 15.0288 15.0337 15.6731 14.1875 16.0048C12.9904 16.3846 10.2115 16.2788 9 16.2788C7.78846 16.2788 5.00481 16.3798 3.8125 16.0048C2.97115 15.6779 2.32692 15.0337 1.99519 14.1875C1.61538 12.9904 1.72115 10.2115 1.72115 9C1.72115 7.78846 1.62019 5.00481 1.99519 3.8125C2.32212 2.97115 2.96635 2.32692 3.8125 1.99519C5.00962 1.61538 7.78846 1.72115 9 1.72115C10.2115 1.72115 12.9952 1.62019 14.1875 1.99519C15.0288 2.32212 15.6731 2.96635 16.0048 3.8125C16.3846 5.00962 16.2788 7.78846 16.2788 9C16.2788 10.2115 16.3846 12.9952 16.0048 14.1875Z" fill="currentColor"/>
</svg>
