<svg width="32" height="32" viewBox="0 0 32 32" fill="none" xmlns="http://www.w3.org/2000/svg">
  <path d="M16 2.88C20.2667 2.88 20.7733 2.90667 22.4667 2.98667C24.0267 3.06667 24.88 3.30667 25.4533 3.50667C26.2267 3.78667 26.7867 4.13333 27.3733 4.72C27.96 5.30667 28.3067 5.86667 28.5867 6.64C28.7867 7.21333 29.0267 8.06667 29.1067 9.62667C29.1867 11.32 29.2133 11.8267 29.2133 16.0933C29.2133 20.36 29.1867 20.8667 29.1067 22.56C29.0267 24.12 28.7867 24.9733 28.5867 25.5467C28.3067 26.32 27.96 26.88 27.3733 27.4667C26.7867 28.0533 26.2267 28.4 25.4533 28.68C24.88 28.88 24.0267 29.12 22.4667 29.2C20.7733 29.28 20.2667 29.3067 16 29.3067C11.7333 29.3067 11.2267 29.28 9.53333 29.2C7.97333 29.12 7.12 28.88 6.54667 28.68C5.77333 28.4 5.21333 28.0533 4.62667 27.4667C4.04 26.88 3.69333 26.32 3.41333 25.5467C3.21333 24.9733 2.97333 24.12 2.89333 22.56C2.81333 20.8667 2.78667 20.36 2.78667 16.0933C2.78667 11.8267 2.81333 11.32 2.89333 9.62667C2.97333 8.06667 3.21333 7.21333 3.41333 6.64C3.69333 5.86667 4.04 5.30667 4.62667 4.72C5.21333 4.13333 5.77333 3.78667 6.54667 3.50667C7.12 3.30667 7.97333 3.06667 9.53333 2.98667C11.2267 2.90667 11.7333 2.88 16 2.88ZM16 0C11.6533 0 11.1067 0.0266667 9.38667 0.106667C7.66667 0.186667 6.46667 0.44 5.42667 0.826667C4.34667 1.22667 3.42667 1.77333 2.50667 2.69333C1.58667 3.61333 1.04 4.53333 0.64 5.61333C0.253333 6.65333 -0.00666667 7.85333 0.0733333 9.57333C-0.00666667 11.2933 0 11.84 0 16.1867C0 20.5333 0.0266667 21.08 0.106667 22.8C0.186667 24.52 0.44 25.72 0.826667 26.76C1.22667 27.84 1.77333 28.76 2.69333 29.68C3.61333 30.6 4.53333 31.1467 5.61333 31.5467C6.65333 31.9333 7.85333 32.1867 9.57333 32.2667C11.2933 32.3467 11.84 32.3733 16.1867 32.3733C20.5333 32.3733 21.08 32.3467 22.8 32.2667C24.52 32.1867 25.72 31.9333 26.76 31.5467C27.84 31.1467 28.76 30.6 29.68 29.68C30.6 28.76 31.1467 27.84 31.5467 26.76C31.9333 25.72 32.1867 24.52 32.2667 22.8C32.3467 21.08 32.3733 20.5333 32.3733 16.1867C32.3733 11.84 32.3467 11.2933 32.2667 9.57333C32.1867 7.85333 31.9333 6.65333 31.5467 5.61333C31.1467 4.53333 30.6 3.61333 29.68 2.69333C28.76 1.77333 27.84 1.22667 26.76 0.826667C25.72 0.44 24.52 0.186667 22.8 0.106667C21.08 0.0266667 20.5333 0 16.1867 0H16Z" fill="white"/>
</svg>
