<svg width="15" height="18" viewBox="0 0 15 18" fill="none" xmlns="http://www.w3.org/2000/svg">
  <path d="M7.59766 0C2.87891 0 0 3.34766 0 6.52734C0 8.32031 0.855469 10.3828 2.42578 11.0742C2.71875 11.2031 2.87891 11.1328 2.94922 10.8398C2.98828 10.6172 3.17969 9.82031 3.26953 9.5C3.29297 9.36328 3.26953 9.24609 3.16406 9.12109C2.40234 8.20703 1.98047 7.14453 1.98047 5.75391C1.98047 3.10547 3.98438 0.621094 7.24219 0.621094C10.0664 0.621094 11.8594 2.25391 11.8594 4.69922C11.8594 7.71094 10.5898 10.1016 8.66016 10.1016C7.58984 10.1016 6.78516 9.22266 7.02734 8.125C7.32422 6.78125 7.90234 5.33984 7.90234 4.34766C7.90234 3.45703 7.40625 2.71484 6.39453 2.71484C5.19141 2.71484 4.23047 3.92969 4.23047 5.60547C4.23047 6.69141 4.62109 7.43359 4.62109 7.43359C4.62109 7.43359 3.37109 12.8438 3.14844 13.7695C2.80078 15.2227 3.13672 17.2734 3.16406 17.4805C3.17969 17.5859 3.30859 17.6172 3.375 17.543C3.47266 17.4297 4.76953 15.6641 5.15625 14.2383C5.28125 13.7695 5.82422 11.7305 5.82422 11.7305C6.26953 12.5547 7.48438 13.2656 8.78125 13.2656C12.5781 13.2656 15.293 9.86719 15.293 4.85156C15.2773 1.07422 12.1289 0 7.59766 0Z" fill="currentColor"/>
</svg>
