<svg width="40" height="40" viewBox="0 0 40 40" fill="none" xmlns="http://www.w3.org/2000/svg">
  <path d="M33.3333 10H26.6667C26.6667 7.34783 25.6131 4.8043 23.7377 2.92893C21.8624 1.05357 19.3188 0 16.6667 0C14.0145 0 11.471 1.05357 9.59562 2.92893C7.72025 4.8043 6.66667 7.34783 6.66667 10H0L1.66667 40H31.6667L33.3333 10ZM16.6667 3.33333C18.435 3.33333 20.1307 4.03571 21.381 5.28595C22.6312 6.53619 23.3333 8.23188 23.3333 10H10C10 8.23188 10.7024 6.53619 11.9526 5.28595C13.2029 4.03571 14.8986 3.33333 16.6667 3.33333Z" fill="#00B207"/>
</svg>
