<svg width="18" height="15" viewBox="0 0 18 15" fill="none" xmlns="http://www.w3.org/2000/svg">
  <path d="M18 1.73137C17.3306 2.025 16.6174 2.21962 15.8737 2.31412C16.6388 1.85737 17.2226 1.13962 17.4971 0.2745C16.7839 0.69975 15.9964 1.00013 15.1571 1.16775C14.4799 0.446625 13.5146 0 12.4616 0C10.4186 0 8.77387 1.69838 8.77387 3.78713C8.77387 4.07738 8.79862 4.35675 8.85938 4.62225C5.7915 4.47188 3.07687 2.97263 1.25325 0.689625C0.934875 1.2285 0.748125 1.85737 0.748125 2.53238C0.748125 3.80775 1.40625 4.92412 2.38725 5.57475C1.79437 5.5605 1.21275 5.38763 0.72 5.10825C0.72 5.12138 0.72 5.13713 0.72 5.15288C0.72 6.9915 1.99912 8.52375 3.6765 8.86387C3.37612 8.94863 3.04875 8.99175 2.709 8.99175C2.47275 8.99175 2.23425 8.97862 2.01038 8.92912C2.4885 10.4303 3.84525 11.5336 5.4585 11.5695C4.203 12.5753 2.60888 13.1814 0.883125 13.1814C0.5805 13.1814 0.29025 13.1683 0 13.1334C1.63462 14.2073 3.57188 14.8425 5.661 14.8425C12.4515 14.8425 16.164 9.0585 16.164 4.20262C16.164 4.04025 16.1584 3.88375 16.1505 3.72825C16.8829 3.20588 17.4982 2.54662 18 1.73137Z" fill="currentColor"/>
</svg>
